<svg width="44" height="44" viewBox="0 0 44 44" fill="none" xmlns="http://www.w3.org/2000/svg">
<g clip-path="url(#clip0_1201_5729)">
<circle cx="22" cy="22" r="22" fill="#262626" fill-opacity="0.3"/>
<path fill-rule="evenodd" clip-rule="evenodd" d="M16.2084 18.9131C15.8498 19.2815 15.8498 19.8787 16.2084 20.2471C16.567 20.6155 17.1485 20.6155 17.5071 20.2471L21.0819 16.5749L21.0819 29.3904C21.0819 29.9114 21.4931 30.3337 22.0002 30.3337C22.5074 30.3337 22.9185 29.9114 22.9185 29.3904L22.9185 16.5749L26.4934 20.2471C26.852 20.6155 27.4334 20.6155 27.792 20.2471C28.1507 19.8787 28.1507 19.2815 27.792 18.9131L23.169 14.1641C22.5235 13.501 21.4769 13.501 20.8314 14.1641L16.2084 18.9131Z" fill="white"/>
</g>
<defs>
<clipPath id="clip0_1201_5729">
<rect width="44" height="44" fill="white"/>
</clipPath>
</defs>
</svg>
